<svg id="bertinmap" width="1000" height="991" viewBox="0,0,1000,991" style="max-width: 100%; height: auto; height: intrinsic; background-color: white;" xmlns="http://www.w3.org/2000/svg" xmlns:xlink="http://www.w3.org/1999/xlink"><defs><style type="text/css">@import url('https://fonts.googleapis.com/css2?family=Pacifico&amp;family=Roboto&amp;family=Rubik&amp;family=Ubuntu&amp;display=swap');</style></defs><g clip-path="none"><path d="M257.60919361055676,0.9999999999854481L296.98579669922765,8.55208366404986L296.3949678736517,45.8009783696325L342.35199697286225,59.2300536960247L353.1990401866751,108.82271932573349L389.8332299431004,118.24867986967729L382.7847058601674,192.6464858969557L344.0220135840318,216.9113675740955L319.7075861307403,264.911930659262L322.41362562363065,358.2472483457095L352.4851647771811,364.02416208488285L411.4737159663073,433.36817266944854L367.98837338560224,470.9954480758315L320.7643204387132,471.56948423087306L257.22976580965405,505.936118617974L270.9211072202652,543.8091932415991L261.311368031591,558.3093992864306L20.08876173225508,558.3093992864306L20.08876173225508,0.9999999999854481L149.0395797856363,0.9999999999854481L173.2306288942018,28.469661333292606L241.54495795151706,0.9999999999854481Z" fill="#89cdd6" stroke="grey" stroke-width="0.6" fill-opacity="1" stroke-opacity="1" stroke-linecap="round" stroke-linejoin="round" stroke-dasharray="none"/><path d="M820.1852268652983,558.3093992864306L820.1728212080925,558.2153006046865L851.6337968536754,509.9681390311889L867.3955379985364,439.8184065359965L850.0629090577859,379.8169088477589L849.4980421284581,343.12871182805975L828.4261122208445,296.39361550757894L814.0045300968522,231.93541099966387L840.8138454512227,221.1448916529771L863.5363742665832,158.78465051225794L827.1186828926566,87.30058785888832L838.301723242872,47.82235517093795L805.1648055869282,12.545240738036227L811.5846818735808,0.9999999999854481L984.8775105809309,0.9999999999854481L984.8775105809309,558.3093992864306Z" fill="#89cdd6" stroke="grey" stroke-width="0.6" fill-opacity="1" stroke-opacity="1" stroke-linecap="round" stroke-linejoin="round" stroke-dasharray="none"/><path d="M241.54495795151706,0.9999999999854481L173.2306288942018,28.469661333292606L149.0395797856363,0.9999999999854481ZM811.5846818735808,0.9999999999854481L805.1648055869282,12.545240738036227L780.2751866131875,20.744247053196887L759.1741438941244,62.25972210384498L692.8474563573418,111.17897524355794L619.438600080297,101.86974191304762L576.077926162634,76.22817411340657L541.7472684538279,109.17117407672049L501.3021744424568,89.26921657298226L491.51194794410003,116.9856789859623L464.8624797884677,124.7046661622735L382.7847058601674,192.6464858969557L389.8332299431004,118.24867986967729L353.1990401866751,108.82271932573349L342.35199697286225,59.2300536960247L296.3949678736517,45.8009783696325L296.98579669922765,8.55208366404986L257.60919361055676,0.9999999999854481Z" fill="#89cdd6" stroke="grey" stroke-width="0.6" fill-opacity="1" stroke-opacity="1" stroke-linecap="round" stroke-linejoin="round" stroke-dasharray="none"/><path d="M805.1648055869282,12.545240738036227L838.301723242872,47.82235517093795L827.1186828926566,87.30058785888832L863.5363742665832,158.78465051225794L840.8138454512227,221.1448916529771L814.0045300968522,231.93541099966387L828.4261122208445,296.39361550757894L849.4980421284581,343.12871182805975L850.0629090577859,379.8169088477589L744.8227866200814,288.74216300048283L702.1576440098761,282.3530199845118L639.8932968732097,302.69585503391863L637.3116402214964,263.52317788529035L603.311294521709,206.71812907623826L525.2536008771131,208.88910257339012L545.4308963901603,151.22466965286003L534.4243126001038,127.53592029641732L491.51194794410003,116.9856789859623L501.3021744424568,89.26921657298226L541.7472684538279,109.17117407672049L576.077926162634,76.22817411340657L619.438600080297,101.86974191304762L692.8474563573418,111.17897524355794L759.1741438941244,62.25972210384498L780.2751866131875,20.744247053196887Z" fill="#89cdd6" stroke="grey" stroke-width="0.6" fill-opacity="1" stroke-opacity="1" stroke-linecap="round" stroke-linejoin="round" stroke-dasharray="none"/><path d="M491.51194794410003,116.9856789859623L534.4243126001038,127.53592029641732L545.4308963901603,151.22466965286003L525.2536008771131,208.88910257339012L419.321821807951,264.8455360315711L410.048688072191,292.9554652857187L538.3440803021786,360.338981585548L509.5843990071171,471.7788772598433L523.891416733466,483.97995442645333L516.0727315405129,517.1507086498459L464.28258185191225,466.9468067467824L411.4737159663073,433.36817266944854L352.4851647771811,364.02416208488285L322.41362562363065,358.2472483457095L319.7075861307403,264.911930659262L344.0220135840318,216.9113675740955L382.7847058601674,192.6464858969557L464.8624797884677,124.7046661622735Z" fill="#89cdd6" stroke="grey" stroke-width="0.6" fill-opacity="1" stroke-opacity="1" stroke-linecap="round" stroke-linejoin="round" stroke-dasharray="none"/><path d="M538.3440803021786,360.338981585548L410.048688072191,292.9554652857187L419.321821807951,264.8455360315711L525.2536008771131,208.88910257339012L603.311294521709,206.71812907623826L637.3116402214964,263.52317788529035L639.8932968732097,302.69585503391863L689.547534039546,313.47732114902465L695.0032007813879,357.81719435982814L664.7678104941351,359.2024413841136L623.0237958278358,338.2950668786798L575.4889123878384,362.33247643109644Z" fill="#89cdd6" stroke="grey" stroke-width="0.6" fill-opacity="1" stroke-opacity="1" stroke-linecap="round" stroke-linejoin="round" stroke-dasharray="none"/><path d="M770.548211497713,558.3093992864306L759.2536308695544,545.2785583647783L742.9518605028734,510.1812848307891L676.6834431168536,534.0576447967615L583.4198031336746,536.2977855488716L566.5654245483547,503.5587283119239L523.891416733466,483.97995442645333L509.5843990071171,471.7788772598433L538.3440803021786,360.338981585548L575.4889123878384,362.33247643109644L623.0237958278358,338.2950668786798L664.7678104941351,359.2024413841136L695.0032007813879,357.81719435982814L689.547534039546,313.47732114902465L639.8932968732097,302.69585503391863L702.1576440098761,282.3530199845118L744.8227866200814,288.74216300048283L850.0629090577859,379.8169088477589L867.3955379985364,439.8184065359965L851.6337968536754,509.9681390311889L820.1728212080925,558.2153006046865L820.1852268652983,558.3093992864306Z" fill="#89cdd6" stroke="grey" stroke-width="0.6" fill-opacity="1" stroke-opacity="1" stroke-linecap="round" stroke-linejoin="round" stroke-dasharray="none"/><path d="M997.001684453604,965.3848672801541L997.1335988399587,966.2677260244673L996.9758628315776,966.7157581966312L997.2602281259024,967.3823396346997L997.2603002959368,968.9869681046985L996.8312558482648,969.3306577489275L997.1001241445101,969.7177179348946L996.612237639647,970.4723028944718L995.5765289279807,970.9548147396272L995.752335597319,971.4753169108153L996.1394194168424,971.0029088753654L996.4618746188316,971.2109372029809L996.8574391488328,971.1399074538058L996.5597831909072,971.9643705981289L995.9282210225701,972.3156868115329L995.5487798270897,973.2518184073269L995.7508276972985,973.786064560074L995.1381548201534,974.5392855141108L994.8208512313777,974.6586286783422L994.8967289839729,975.1837548809708L995.3155177591889,975.3316547610739L994.8857419473261,976.295676809299L994.2379695725776,976.3726670382166L993.9903439240315,975.9680808415724L992.7181425246872,975.7123835579259L992.9282309844384,975.0924728402024L992.680953497389,974.6651754541381L992.370309882559,974.8559670085378L992.0256542617062,974.4638374051865L991.7636517752653,974.5534586447466L990.5135794632661,973.9541755355021L990.1142129949712,973.9957077949948L988.9667728967706,973.3121324520616L988.6738452294412,973.4812359534262L988.4211370562298,972.8664147837117L987.8691583785949,972.7190552993416L987.2811500780899,972.008576777429L987.4871641738828,971.6173886475735L987.4486480985779,971.1757607871987L987.7428851209152,970.9036918009951L988.6947457143015,970.6782361744117L988.8471138633704,970.1391515197174L989.3387276302128,969.6487216978421L988.1881859102232,969.6069234207389L987.6601368800711,969.2681861181918L987.0015121297802,969.3637807047489L987.1733662274546,968.9080984078901L986.877655972834,968.7517072934279L985.9298458846042,969.2270529426169L985.9157249493637,968.9167598606728L985.5210696246832,968.7060633547517L986.1863949303806,968.0702462949703L986.1519658753878,967.7787044314464L986.4679937579585,967.2359953183186L986.8310246806541,967.2074999185861L986.8085739729358,966.6933713530161L987.0745761176004,966.2223216755228L986.9578952109914,965.7629760407144L987.2118119664938,965.4509407505539L986.893337408992,964.821221315171L986.3800415932474,964.596686117613L985.804016222206,965.1748348798137L985.0583960277381,965.292694985008L984.0423058299966,965.2609980548295L984.2306773046057,964.855333463056L983.6813573988802,964.0892011119722L984.0309703464882,963.9084244038968L984.5851889423411,963.9371886377048L984.9038105733125,963.4928170701896L984.6764373592869,963.0149410572485L985.9805094775438,962.2530331326125L985.3773574340121,961.0662534641597L985.0367794758495,960.6986899536569L984.5393443990306,960.9032933581038L983.9879981405265,960.6027788661595L983.2856201875984,960.0267379398429L983.3904737806879,959.6749901157309L983.1069643646206,959.2330941896071L983.1364460494206,958.8537446831324L982.4252221226907,958.2697112266032L982.9509922605776,958.1544970123796L983.698746203967,957.7453345005197L984.7591921922067,957.498105156672L984.8011082151279,957.1824341915635L984.5000433495952,956.8290602311172L983.6843547863791,956.4936889772798L983.4990379597784,955.7325923144235L983.056094216834,955.6630111517879L982.8023046101207,955.9985922401247L982.4351873296146,955.8378608273051L982.7380917117171,955.0514124516194L983.2739505532791,954.7468879663356L983.2105163069409,954.2530652646674L984.0003418738033,954.2263359039061L984.2223820802647,952.8753602304932L984.0123625088399,952.111449636388L984.84599639515,951.7755775161495L984.7779766907315,951.211691199278L985.1240165655054,950.7954026739026L985.6043683677362,951.038418234777L986.1608373860854,950.6683957970818L986.0752212820571,949.983188590777L986.8703632518464,949.7438780786033L987.2602318745321,949.3243481235841L987.645353563028,949.3311433752096L987.9370564415294,949.0405414217239L988.268983918113,949.133436095537L989.3443230168159,948.9134847357782L990.1283882102725,948.3231459197705L989.9691638963795,947.9786587690614L991.0199619071009,946.7914858960721L991.6247576083952,946.6343006397656L992.2071339004178,946.8440691328724L992.5574244704076,946.5830647988041L993.6728856093177,947.7900206500781L994.2518511911821,947.2923421784799L994.1988353375582,946.9386949884065L994.5359136286061,946.2593493964523L994.3682527073433,945.7976926891861L994.3968291211586,945.1453529138234L993.8016988842173,944.3420283295272L994.1279330987945,943.6665233516687L993.9336516123185,942.8749577784474L994.3702410940277,942.4966172531713L994.396624597428,941.8571889595041L994.1933169401764,941.7126771968615L994.0527416889963,940.7195213626837L994.2666662011561,940.5169316819811L995.1590628688682,940.4607616831054L995.6035397774685,940.542837265908L995.9641605738725,941.0065353850077L995.8421639056251,941.3824756116665L996.1703570897389,941.9108226559474L996.5194032635427,944.04786433134L996.7736169965337,944.9622575512622L996.5082419948048,945.4986062657408L996.2676018198435,947.6406749288144L996.5834390251075,948.34558510645L997.5510019872218,949.5133021208458L997.907384162856,950.3769919584738L997.9342508878344,951.525574933461L998.1712476261873,952.1405493521452L998.2553143925961,952.9853904997581L998.168584247438,953.7959356390202L998.3259566732831,954.6793361434684L998.7956807914761,955.9794916728861L998.7644164056856,957.0569791508751L998.9368286622066,957.8385074383696L999,959.435588531167L998.9563172576418,959.8592760300671L998.6584785891264,960.2911627976864L997.6257640062013,962.2280830953969L997.0170767454274,963.263492069309L997.087233092996,964.1453673345677L996.8883914011149,965.0460933632858ZM944.625202765088,943.2604908828798L944.7514495697287,943.6989345892653L944.0457190795714,944.1167790519394L943.9521307366958,943.7135304603435ZM828.3184316637453,881.1445542823203L828.2088556562139,880.6526390649378L827.7287975085965,879.9381891795638L827.0237133569153,879.4873590772768L826.3514944001363,878.6049742348259L826.2698973552178,878.1840330276609L826.4259046233856,877.7502006431605L826.1047068423668,876.6280517862033L827.216433027832,877.4378147390526L827.4148828438356,877.793257503552L828.0172449307956,878.0280861154752L828.5403543987923,878.0167495588976L828.7267724821213,878.4385520304495L828.5885566305933,878.821799545869L828.6631280390138,879.3982085843891L829.297057223188,880.3106632732379L828.9689882906114,881.0843194905028L829.1307415704305,881.5488881893543L828.4802051219867,882.0549604906264ZM825.2696004749014,873.0515599249775L825.634417812942,872.6664729035256L826.3177923409457,872.6729021395149L826.0915476551127,873.2050644421688L827.165774000985,873.2430863433547L827.6460567193426,873.6813137271965L828.0771596516042,873.7013693402841L828.3243291021481,874.3065883573145L827.8434791080799,874.6565460274287L827.1243538412728,874.363290312991L826.5762095545269,873.8405459763599L825.5506307506821,873.2396766864404L824.9010397732545,873.3869191264821L824.4475384894486,873.1602248327399L824.090894629715,872.3929684248142L824.8246232649253,871.9882574231742L825.2985452454323,872.2442909615929L825.3938513124449,872.5529352885205L824.7987684163836,872.751520122576ZM813.5909884549219,861.4524985909375L813.2171344939852,861.917873241604L812.6879284950919,861.7129409116169L812.2008356886054,861.2060758652806L812.5907030362669,860.8566898408317L813.4039844887066,861.2124721603323ZM775.7597121250019,820.5600525382179L776.4314844241635,820.2721479462634L776.3824392977604,819.6224490715394L775.7799569153776,819.7816278924729L775.335308528769,820.2466153764399ZM798.5450380474176,840.4846045185113L797.9471267188455,840.432006463845L797.2728966097948,839.8769024484936L797.6792428669087,839.7011974178749L798.6642860144038,840.2264370124612ZM800.7675252444715,847.1230486142013L800.585229272896,846.9592263726954L800.4303313800337,846.2610674015741L800.8693012844415,845.9192536333285L801.5105141493823,846.303892872078L801.9412841766334,846.3749373593018L802.0995380451113,846.9882622305158L802.7371098030435,847.4568965760118L803.2553637569144,847.6820143788063L803.055380195703,848.1253565249644L802.1694828032432,848.0146322220389L801.6382452465095,847.6709169021779L800.9653991310297,847.8229894349788L800.5465969392826,847.2612515552464ZM852.3551575149268,950.6430682328937L851.6825010342181,950.8385254085733L851.0321483511343,950.6092493420001L850.4448938486621,950.1471918138413L849.9090425139584,950.4497272648296L849.836035119708,950.9065773810435L849.4049781638932,951.1297131034516L848.7580321011665,950.124448449249L848.3366748210083,950.1321455072612L847.5378463360321,949.6738848237437L846.4826334981371,950.2191938654432L846.1540429176439,950.0563988047797L845.4600578257341,950.493705939356L845.0861643763346,950.3361227682908L844.5059877268741,950.7077304078557L843.6702897180076,950.4176618033234L843.6003757152484,949.9429086630698L842.9938111368338,949.8625412251131L842.9653859527043,949.5566775317566L842.2903886685235,948.2608402294718L841.9009629264328,948.4061871222948L840.9502965019892,947.8552040589129L840.3734022417848,947.2521847605094L839.7978093230977,946.9251530589827L839.2478824952323,947.1557197693619L838.8922209300908,947.6610036209022L838.4466659321733,947.9669365865411L838.2259785185306,947.765062461156L837.6665677226465,947.9984912888176L836.6241628379921,947.313373248835L836.2811915073416,948.0329205629678L835.9236715755633,948.3221136909415L835.7272541020957,947.8666233003751L835.3182694835978,947.746988545754L835.1386069412256,947.0860623701446L834.3413136539184,946.4942635785555L834.0264152624477,945.9458591758885L833.7243215927974,946.0090916094778L833.2770038681028,945.7566848392744L833.1185798840415,945.2587722582975L833.303809421559,945.0461749581009L832.9091364992637,944.0558118127956L832.2906818852316,944.0937920693104L831.9609370367834,944.3482851148583L831.0819158263566,944.3196934223088L830.5991813074925,944.2000851232442L829.7950374652137,944.1952039605967L828.9487918362174,943.6213711552409L828.7107028436731,943.2447421215766L827.8499073949788,943.1352538499486L827.2111691658847,942.5782982141391L826.1360630826093,942.2862350129581L825.3745834350193,941.7477197736443L825.0880669007583,942.0147397718392L824.129665629498,941.3911648551002L824.3181114664803,940.8825875606562L824.8110720121076,940.340402154121L824.0016639162168,940.4231515242282L823.5892790938578,940.808658540147L823.5773424220279,941.6694542769546L823.3736287282336,942.2302926218545L822.0006925383714,941.7599385010253L821.5572213789401,940.9768771039671L821.6970264650336,940.6265024933673L822.5211916391381,940.0112482366385L822.7848233404711,938.9368200293975L822.9777733528626,938.7595152863214L823.2330522264438,937.8229795193911L823.1833342730115,937.321228546818L822.7230470005525,936.8512702912558L822.3076572332411,936.9783145660767L821.4829282744213,936.6287347338803L821.2771927154499,936.3367676140624L820.8645039599123,936.3081124040327L820.4425694073325,936.5827842565923L820.1000405574068,937.2147643699573L819.5936175380448,937.1410363071336L819.2906072495753,936.41413597684L819.4344728661054,936.0701824912248L818.7242422323743,935.7180168553023L818.1682434839113,935.808335547641L817.7284778825215,936.0766956010921L817.4203154900861,935.2332498261385L816.8627364308668,934.7398753178422L816.8343847045417,934.389876817615L817.6796345068524,934.2166982916242L819.4796921709549,933.6127488504135L820.041598803009,933.0666325713828L820.5268890517182,932.237405416643L820.8613447645293,931.8963479909289L821.2701441578538,931.1849522324046L821.8434778918527,930.2891641944443L822.6194561730335,928.8090282624908L822.8003503483633,927.7792431039852L823.2439208337728,925.964359067526L824.1742163055533,922.6939598153549L825.2841736525224,918.3335355565796L826.1110018558593,914.2498542280227L826.6503146479427,911.0577688907069L826.7391876128877,910.0336434363853L826.6701416068227,909.3273664638837L827.2714655457639,908.590101700931L827.5818924561518,907.9122242569574L827.6227280981602,907.3473057557421L827.8423525182043,906.9170781302382L828.2800719577936,906.8688558135473L828.6302268205964,907.2479864728084L829.5300798096359,907.4526887473767L830.5725686960614,907.2932946051005L830.4289720643956,906.7000224938529L830.0587673919636,906.5689766742871L830.0657175055512,906.0525917990599L829.406886138715,905.344454007849L829.0731654921692,905.1660033305234L828.4318534997583,904.4629981079634L828.2457659614029,904.9736377531372L827.4691075790124,905.8170023867133L827.1569424167137,906.4063264066499L827.006149498051,907.5668223602843L826.73949317609,907.1416463152564L826.9698562562389,905.7538422288198L827.5872090892644,902.5119029578636L827.9386013432013,900.358937794852L828.6003344996825,895.739848987505L829.031265105421,893.0720431671944L829.1809911718283,890.6640939704957L829.3613664196819,890.0008690604154L829.3029031175174,889.3716423086007L829.6241698818922,888.5747877680114L830.2499425290298,887.869908615161L830.3249170072177,887.5451842677721L830.8689530412266,887.234906649508L831.4235805920307,887.2113239801693L831.9253898770348,887.1826393599622L831.937907099802,886.7391250522924L831.5579969519476,886.1990787848481L831.2044876380205,886.267624881264L830.8093673785752,885.9191349256143L830.139571317035,885.5823221583269L829.4673456813653,884.942259132702L828.352929058241,884.1949749892228L828.3600509405769,882.5484336790978L828.8868214040849,882.2680336093181L829.2408541634431,882.3985179694573L830.064234229767,882.1304896960064L829.6366428214624,881.1073390781094L829.8095763644051,880.8672655068076L830.2845651610041,881.021665308188L830.6136787782943,880.6988845906017L831.0716870275446,879.8042479443102L831.0503799158378,879.314154162028L831.2550493035505,879.037238716599L830.8114439047731,878.2748191312858L831.3235872064979,878.0719300400815L831.499439313664,877.7164647433528L831.3575898962008,876.8850463078852L831.0008552494819,876.7599772859394L830.8661426180679,875.8857542461483L829.853265216725,874.8245884808275L829.3422358846547,874.6736198858853L829.0904970650772,874.2218387495523L829.4934615580823,873.6259013892559L829.5203024791554,873.2153363578982L829.8924164080763,873.0413874231017L830.8981425627771,872.2413007864088L830.6791610418331,871.1647785380628L830.1937547395864,870.8461133079982L829.5761284726032,871.0473293114337L829.6735657084882,871.3250047159381L829.2582680765845,871.8974531731074L828.387241835906,871.0493410449708L827.2837669054043,870.1691982258635L826.6315136986614,870.2881838538306L826.2271968914374,870.1212360836071L825.6575328048839,870.1929524818406L825.3772110609461,869.3274125048774L824.9961596425219,868.8069359837682L824.4656155330213,868.7518472491793L822.9411183152715,868.3034621537518L822.747544754382,867.9438928787567L821.4817135265639,867.0731345482636L821.2821278176289,866.7392676123418L820.652357704208,866.6097748888133L820.5582996602079,865.9442586319929L820.1386572731972,864.043007173881L819.6690144594777,863.4730646958196L818.9677428706236,862.166058311399L818.6244498274827,862.161041871208L818.4513363976912,861.596742135167L817.3067209730161,860.2181977600121L816.1737027562322,859.2353149306291L816.080689266686,857.691642427555L816.5773423169412,857.6917697230092L816.6605745583711,857.3227435148146L817.6054001494504,856.4553811095975L818.116186261941,855.2049302915839L818.8681923740005,854.8375194557739L818.5524106402736,854.1085677593219L818.1558141066052,853.8206453239109L817.8954603103648,853.36204492049L817.0431899192681,852.9559858598514L816.3615650793417,852.844944852055L816.0496426922491,852.6262620004272L815.4392971900179,852.5040973410069L815.1372688155516,852.2631516235851L815.4010406803409,851.925990985008L816.0857403013524,851.8912224283122L816.2948655916771,851.6818683619058L816.4689225476777,850.7133871908736L816.3480327079087,850.082631976009L816.3970208618393,849.4599481818732L816.1578743747305,849.1797620721627L815.246678578158,849.6560715726082L814.9871404162059,849.9198258503311L814.4638624712879,850.076074414319L813.8451358958791,849.5508501875593L813.6204236328431,849.1706381940312L813.0443601008501,848.952665490986L812.3887466789056,849.3787018686853L812.1012424931287,849.1367757088883L810.8745198746819,848.6015664872248L811.5197821781348,848.1451308072428L811.5155106199854,847.4744979221869L811.184945598332,846.9799673327943L811.1496502028185,846.6266157003265L812.2172324561961,845.9292258853238L812.4075029524447,845.2768666001939L812.089755669891,845.3925545467064L811.8276609230761,845.0336771751026L812.7332250219733,844.1901341049524L812.3904188540419,843.8900823682488L811.6095036368879,843.503306422921L811.069244756547,843.7728758476296L810.2400500464028,843.0125066976616L809.9005433970087,843.5706844826054L809.4891352161849,843.5340019466385L809.1851039911817,844.0193456051493L808.5840931951006,843.7349904496223L807.2203270378923,844.0661300791835L806.8115028508928,843.8320581997832L806.787099099427,843.4799082682148L806.4168156746236,842.9664185653528L806.4125725763115,842.5243952633464L806.9656203974519,842.8027033424296L807.7547984667253,842.7837233776663L808.1752276862098,843.0372968145384L808.5504450865465,842.9504085993103L808.6610864821359,842.4391966145486L809.2234579984106,841.9674280325416L809.295555724826,841.246295617384L808.7888710290408,841.642120940829L807.9755283780141,841.2424937246979L806.9484946574139,841.1852781718189L806.5365321196659,841.5800060089823L806.0622631175411,841.7176780311129L805.533784063864,841.5139934137551L805.1881006547446,841.68913099356L805.5456958647046,842.2073750905838L805.0858639629332,842.3690921783709L804.0314200336597,841.8157927837892L803.3203263519208,842.073975184554L802.8346111835217,841.9273032676865L802.6258145756892,842.7194621411472L802.7964487995978,843.5177715006284L802.3612368692684,843.7656513388647L802.3216342832238,842.9683423502283L802.6336362433613,842.3628674349748L802.6097468947155,841.6897683874995L802.3828861924594,841.0749578641407L801.8358200043676,840.6626222955383L801.6748749979743,840.2595545817749L801.7369782310798,839.7146136871597L802.940561568299,839.0045171459788L803.0544269503243,838.5870041825692L802.4039404654068,838.3635164420702L802.406029956599,838.71460522915L801.9499079092402,839.0229761678638L801.5955863079762,840.1473048715125L800.8575391247796,839.386726126977L800.5873861068267,838.8368984958506L799.6137860963263,838.6706096376001L798.6498182155883,838.6480329102924L798.2250001150478,838.8148931620672L797.5903207757201,837.9864766147075L797.2406169209662,837.2043990826787L797.465266039133,836.4004339859821L797.2782529655979,836.0142184615688L797.377320035459,836.2482762706059L797.0897731784262,837.252981584752L796.7224294376847,837.0886812312528L795.8218145210212,836.9855691946868L795.5387114792647,836.770128603559L794.9486903203178,836.704698807458L794.2993393508368,836.1118714596232L793.9100866109766,836.3729357128468L793.2833732577819,836.3560837846744L792.7531076107334,836.1512705037021L792.0345235471468,835.2938949538802L791.9552654166037,834.7006441401463L791.1957177828554,833.816283774504L790.7269826481934,834.0854234016151L790.814885273745,834.7140859728534L789.9279324507388,834.8458078452531L789.54529577826,834.3831841814244L788.9044115708366,834.3213305601676L788.1327011853755,834.5847891782178L788.0647276448999,834.028792093508L787.6348229765408,834.3570588691218L787.9073080970957,834.9000879365485L787.8582773497837,835.5235904193542L787.2436234145807,835.7327119160764L786.4956782394802,835.719818898302L785.696509244588,835.4815505339211L784.9588997991214,835.410082929011L784.9339292711065,834.8820576462895L785.3957598450761,834.7166838199191L785.4460963946694,834.2955109144968L785.3092670575988,833.501290726228L784.9685109366364,832.4943721610907L784.5891531254947,831.7833121650183L784.2150418751517,831.3414653235668L783.535738397868,830.8158150113595L782.848615976056,830.5336372052116L782.5993163143685,830.777114542565L782.1584395521768,830.4058464971458L780.7123485194788,830.0107957361033L780.5677835821498,829.26177005723L781.1384665856367,829.2994149858714L781.3159546772913,829.1268215309392L781.915509057184,829.2099413793912L782.5120027182638,828.9769506169105L782.9605561596236,829.1175104798021L783.1963081747435,828.8877583918365L783.87307071541,829.0113310100132L784.0639321960825,828.8280495126237L784.6172195574745,828.8531596018438L785.0228161540108,828.6655397022987L785.7598270965682,828.686202421799L786.524371943633,829.1960261999775L786.8472634230693,828.9247528577398L787.1459704394674,828.253217812482L787.1232447568327,827.7965916260291L786.7947388534521,826.9341961314058L786.0316373614223,826.6180640468665L784.7734609792642,825.832797302719L783.9918388173301,825.8724127777241L783.5326423438728,826.8045758620574L783.2225259235893,826.5889417472645L783.0933577247106,825.7468906270078L783.4121174258726,825.484025932994L783.259849609176,825.1910454213357L782.8526619063432,825.2812483892194L782.384695977662,824.9292601437483L782.664702437527,824.5889865546778L783.1793765855437,824.5511601059989L783.0544178840628,823.8208635508199L783.5554055751581,823.774371808453L783.386246926173,824.4180650240014L783.8867169528476,824.4906612395862L784.1132731618563,824.7602700563439L784.7372690612137,824.5848944044847L785.1691724910252,824.6661509737023L785.412179307943,825.0104304343549L786.0330210578413,825.0317719359446L786.9410930026061,824.6836321542651L787.5591102642757,825.1353153852979L788.0286182370728,824.9094153895276L787.9106364560866,824.5977925968327L786.9233868508763,824.2542598543077L787.105818176653,823.6885699599225L786.2301058960475,823.544970441304L786.0149160063502,823.9687642192439L785.5846710074893,823.9873687225045L785.1170996468354,823.5570076669101L785.1104532869103,823.2867599784513L785.8359819875095,822.6367323592713L785.4429145086087,822.3572088881047L785.2648720255456,822.6508897090534L784.3043859218269,822.6810464868904L783.7284104447353,823.078577609398L782.3873548003885,823.3781492875132L781.668355407417,822.9126595532725L781.3685695793192,823.2820233418897L781.005202434093,823.4105673569429L780.2709927988508,823.3284551650286L780.2173723693486,822.7989981695137L780.556540731659,822.3865738140012L780.40582721809,821.6700350981264L780.1377524530362,821.4714832209429L780.6938385002359,820.3851482312748L780.5827803892353,819.5465489399357L781.125292273664,818.6880180249427L781.6913380242931,818.5472838217393L782.0711891683277,818.225270148163L783.1075399042966,818.3038894505589L783.9835453745345,817.2862562202936L784.6865221352418,817.1531167729117L785.1776067296014,817.3880350082472L785.8411924588581,816.8459331202466L786.3561633103527,816.805056584737L787.0876209081853,816.4168364848301L787.8326901459277,816.7498859935149L787.5015525965609,817.249482483574L787.7610740114324,817.4383195142582L788.1176923911589,817.1022666395875L788.6370435897406,817.1269678080425L789.5339902863343,816.482398575361L790.5121126173162,816.3293214462901L791.286911141684,816.5753397625667L791.3420816294038,816.2792533043685L792.3006767189454,815.8776164476731L792.6985455899794,815.9382126336714L792.6388610759168,816.5902036763291L792.775560891454,817.4499929965386L793.2076754575064,817.0927122697467L793.5882893574453,817.7404848460719L794.2273558978377,818.1474045754876L794.1408785689255,817.382924154299L794.2238736238451,816.7816797311825L794.8608421044046,816.3149642356875L795.2714148702453,816.6122537312622L795.9910048023994,816.5071487408568L796.4223162594317,816.9584036863962L797.2802936989483,817.3428735602793L796.9717571344154,817.674053541341L797.6517930590635,817.4494533674733L798.1100990078139,817.5336857960065L798.3313986015091,817.2763953477406L798.1542087858816,816.4781982146087L798.6130556813769,816.2837042888714L798.7029526856641,815.9095181353332L798.2399221516844,815.3663135064853L798.5577439136268,814.8052438811137L799.0091840472869,814.7261799167609L798.9582654364349,814.2710543982976L799.6886951351917,814.2129038486601L800.4812154518622,814.5875134424714L800.3581272185711,814.9184868084412L800.9788223594751,814.915785062054L801.1248800457506,814.6014672332822L801.9028216327533,814.3900854855601L803.0506204049161,814.2215964146599L803.2569145220132,813.8585644471314L803.6393585170081,813.6940950375865L803.8286509564186,814.3977132786531L805.1875065934146,813.7979823237692L805.5035894646044,814.0363497929502L805.5282611020957,814.561860136324L805.7607652407078,814.8264105052367L806.5158782122726,814.8851563881035L806.2054162744826,815.6955373998644L806.3817499095367,816.0455309212557L807.3258660583087,816.2306867009756L807.57498489309,816.4705147984059L807.3319343506537,817.158103269423L808.1699346315054,817.8862680744642L808.1801029330727,818.2378697270469L808.906505929559,818.6867264272878L808.8744175388001,819.96999612324L809.4999870360007,820.2891673297272L809.5365009902798,820.5691065503197L810.2208680985332,821.1658982873923L810.2494617210341,821.5082536203117L810.7209857552534,822.2678335804958L810.8128960414597,821.5337395158713L811.3907952105164,821.7617328993219L812.8476936886291,820.247652473161L813.6500664960222,820.0408138232451L813.9566965836348,819.7821083282179L814.0821963305152,819.1921446119813L814.5158997223898,819.1602021842264L814.7303723370296,819.451728683096L815.0963609700084,819.4194817928073L816.0600919388326,818.8772665283614L816.7227922178026,818.986438906315L816.2942758906411,819.6953557183879L816.1955190792796,820.1996218363056L817.0730540128079,819.4952673273219L817.6465542046772,820.6772394695145L818.4055404649534,820.8634442077164L818.3865517372196,820.4134929621359L818.9641835382026,820.5135317657987L818.872286616057,819.8283942010457L819.9006253467287,819.7891310142004L820.6020821313632,820.9630042626231L820.5935206822633,821.4531787310843L821.0483295815247,822.1679775793455L821.4044119593036,822.0994755000866L821.0630833386931,821.6104208157776L820.4323766735324,819.8881108159112L820.4369235597096,819.5809991184506L820.8907376592651,819.422124175675L821.0530142770367,818.9730388109892L821.594820788574,818.9751188832452L821.7596649564675,818.7286375023541L822.2334544743626,818.8565256933944L823.030815991362,818.7000495961693L823.1904668349453,819.1508528911072L822.8066847726695,819.3862233191467L822.6464388710174,819.8158011957858L823.026893443579,820.5428852212062L823.9993180676702,820.8500059498474L825.5893975843537,820.7997713634832L826.9506885877054,820.5240061812947L827.3533366273059,820.4435343049408L827.738779724863,820.7481047445472L828.2717808551843,820.7787115145038L829.0606868083978,820.3941601678525L829.6032814245973,820.2928550197103L829.4548136179692,819.6306236725359L828.9960869698352,819.7703385266941L827.9370363179569,819.1702897815994L827.682026628152,818.3067935434956L827.244694059531,818.1649909925327L827.0583733720232,817.7631869928591L827.2119474454557,816.6271224312659L827.1484082542775,816.2803537785512L826.7748574566976,815.9355831957218L827.1767336582125,815.3109084027237L827.4188896353717,814.1183861499594L827.571242631042,812.3853900233953L827.1249444138757,811.9012304525677L826.9735953692834,810.7052648950194L827.0155396966165,810.0830511930399L827.2855529260523,809.4359655659937L827.1526586446762,808.1057552534039L827.4980691271448,807.3140562686458L827.0917674749671,807.295154242136L826.7174649372264,807.5551525163319L826.4180605760666,806.5531079100474L825.840468252527,805.2270226994879L824.8718201917236,804.0223070560896L824.5170657514027,804.0476280706062L824.3441132142634,803.470790859632L824.3684402627914,802.3499274684582L824.1397579003169,801.9423551746004L824.1014384978662,801.1138165925513L823.6194942448128,800.7018232044502L823.6584327653509,800.37587461574L824.0589250930971,800.1826519374299L824.3253826845739,799.6943847000075L824.3485718374613,799.0602321318438L824.1576242048486,798.0329960807139L823.9483468207472,797.833946995961L822.9687359081472,797.4277171371214L823.1052774055133,796.3110754624795L823.6070668871525,796.4294837842463L823.8331074663492,796.7885384889087L824.2689827881513,796.5911429432599L824.6828856486591,797.1359129280027L825.6011040240974,797.5087751018873L826.1546692423926,797.5021234430315L826.819165527897,798.0310790082585L827.4293731472662,798.0227730267216L827.4934649741681,798.3572723872203L828.2856060086851,798.1326929202187L828.9431522843606,798.1747287417384L829.4507946646354,797.9467386445031L830.2087753449814,797.3004810892598L831.1338455619516,797.195277200095L832.1208512068661,797.5501099971007L832.4489747339012,797.5267218362133L833.0530600025559,799.138181924136L832.6894139792639,799.3524355404516L832.4743624521925,799.7728729100345L831.9157155062385,800.1582154478237L831.80944690057,800.6884872692026L832.0590259951696,801.375103102444L832.5362989001569,802.2163196400215L833.4653359298809,803.4997385611641L833.7233348138761,804.2169877075357L833.6630343945253,804.7608397553122L834.279903648132,805.0350116027403L835.0264753491247,804.3133162333252L835.9746611818155,804.232112448648L837.0919531862291,804.3734878342948L837.322314694422,804.6207926104253L838.2117846858637,805.1235600273358L839.8960024368353,805.5057716308802L841.0965833653281,805.600580326849L841.6633886030886,805.7396893531259L842.3160436847138,805.6321817580465L843.68361218276,805.915429989167L844.2729172165346,805.9478419240186L845.0148948873612,806.2475177926681L845.8349908691562,806.8236379270529L846.9140226500276,807.2304037744034L848.2561569686986,807.0898957938625L848.7795728317233,806.9486648633028L850.1548036918739,806.4052417547791L851.2678588952494,805.5622455054836L851.8058626985912,804.9473910393572L853.4200392560451,804.290255312415L854.4665443099657,804.2886692205502L855.0673806268042,804.067907921446L855.0787633275413,803.8735203289689L854.1424775175674,803.7644411343063L853.9264462422998,803.915569013916L852.9964137570623,803.7667474180344L851.9955099181898,803.4751134963153L851.5773998775458,803.0475269463641L851.3019357805333,802.1044870074984L851.8856893192315,800.8494759245805L852.6130206960643,799.4563432701398L852.7796769956476,798.6381045150047L853.3907702856341,798.0555437382282L853.837085370049,797.9657695652277L854.5340652237574,797.5771681936167L855.0809146744486,797.4997274700581L855.7471267832007,796.9395609233761L856.520865460956,796.6346746476338L857.9374520243309,795.8025793071429L858.6611466983122,795.2760580052563L859.6149802290074,794.9998566222785L860.6057188081159,794.82700387144L861.7468009327877,794.7993693498429L862.3405315821437,794.5137687418755L863.7545370746484,794.1591976705822L864.1953208296381,793.9039054071036L864.9928294136625,794.0059184932761L866.2302524802508,793.5784001592983L867.6347815269564,792.8183637274196L869.4461769054851,791.2536101441947L870.1437136370478,790.8616559949442L871.1879839639623,789.8887177285651L871.5478483333718,788.7285115521081L872.0350452088842,787.9358647069021L872.5438210122484,787.6508428750967L873.2002556730586,788.3105377294705L873.6386174506097,788.2201584087597L874.2757002211965,788.5649739490764L874.4249719675354,788.3854716736969L874.1406082577814,787.714357031422L873.5901443881467,787.6935612490051L873.1866993402673,787.0287967875047L873.1722828075126,786.7632464237104L872.5742195113398,786.666312933783L872.424502791413,786.1782868536538L872.6329531273186,784.7072803951451L872.9206432851042,784.5352711946471L873.6928531381473,784.5147441236913L873.8970924509686,784.6898585025338L873.6771180695305,784.2569856488408L873.0017689397755,784.0429069926322L872.7176580147061,783.6762490731489L872.935504414605,782.6597757778218L873.1518536436361,780.698493177726L873.655668075533,780.6995689306204L873.0781357261876,779.8765215295716L873.0998941543712,778.3772588619177L872.9080372052249,777.0936290472455L873.0525030575682,776.5517896925303L873.3833949212967,776.3672957457893L873.5709075046943,775.0933549474721L873.2059260785973,773.7533914671512L873.267927947345,773.36177579996L874.0147696754011,773.24511421645L874.3598351667588,773.0195255108556L875.0885830032912,772.1193786387885L876.0409449413492,771.5789526540029L876.7865113042135,771.4047358639218L877.9107101927348,770.9688401378371L879.6996549992564,770.6812042464735L880.0087834050464,770.5061819572293L880.5641907292447,770.5638776513515L881.0700955844131,770.2011306932982L881.537279593138,770.1552474768396L882.6498507352626,769.7272004277766L883.9763369818575,769.3979769288853L884.329332029527,769.6292798554641L884.9315075394989,769.4812973958178L886.607645119253,768.7770920445328L886.8325014520669,769.2975207065465L887.006393304744,770.408299726696L887.6188525498455,771.4818792734877L887.7413468249197,771.9506799113587L887.2537759609713,772.4398342968925L887.4298014944125,772.6215863249527L887.4853718099966,773.6908449460025L887.3136178896002,773.9098826542322L887.6711811987097,774.2774667365593L887.798210695244,774.7972307260061L888.9384090450149,774.7833645292703L889.0520616615322,775.2453283516807L889.5529146862282,775.7200603597594L889.9297247815575,776.6917259446345L890.343249884334,776.9296085094538L890.7435977526366,776.766438225648L891.0445560614389,777.203391121453L891.6086074310751,777.3875904383603L891.8723907998228,777.0410843485588L891.9945621088282,776.2882916863455L892.4739721429105,776.1709971851669L893.0100988464274,775.7609917346854L893.6915444624501,775.5122367828881L894.0696603926044,775.6673970517004L894.8795949518826,775.298214992712L895.8681679808888,776.9978535628179L896.2446194494823,776.9758095734724L896.5129215925572,777.7829806565423L896.1870696512942,777.9456273208634L896.2286077426288,778.5598336128169L896.6441672467463,779.3446152785182L896.675839946789,780.3464804713876L896.8251071033246,781.0210181581497L897.3899066792346,781.4123827063013L898.2903933763082,781.6518284347112L899.0555679259869,781.4822772935731L899.4352889646652,780.876961822185L900.0470572241575,781.0689198925247L900.1069315991717,781.7152277051937L900.7540724221653,781.5801528229931L901.2854670710221,781.6564330854744L902.1596196924693,782.9276661349431L902.231260732924,783.9807099690661L902.0162259213685,784.3502928775706L902.2417032698359,785.1883214296395L902.760640743074,785.8758717642777L903.0545692972828,785.5492663484474L903.1536129067663,784.9026602990198L903.6605327240413,784.776156386506L904.736159833812,784.8008163333725L905.2580426895638,785.2661452811444L905.5537915308014,785.2834820930148L906.3422655771519,784.8088952296239L906.556333733748,784.951002797563L907.1182108520152,784.6133702288498L907.3866839418752,785.0255894504953L908.5177186545443,785.9250095665338L908.5529791844529,786.459449180853L909.0784511800102,786.1115600109188L909.280322231105,786.3967499530845L909.7160030074883,786.4490268206573L909.9009545769295,786.8995899568108L909.5308272972907,787.1652988822316L909.0703652768989,787.994566887719L908.9571955320007,788.9548026640405L908.6271419635996,789.4728305000463L909.6089695786595,789.4518428568263L909.759406989946,790.3123823522765L910.1080268472706,790.8398461404286L909.3632024406652,791.4019037077524L909.1489898828568,791.3401370875799L908.7873290584484,791.9902141100465L909.1791548501205,792.5210011029994L908.8719913179957,792.874345749995L909.3209288070939,792.9017605545669L910.1752601673725,793.312559283615L911.2331560057919,793.0351375868486L911.8211544517599,793.4102729256701L912.8033825647981,793.5281431460753L913.1877910687144,793.7026779667649L913.6709898761983,793.4681844592269L914.0762947362782,793.4859999691689L914.5140842372148,792.9846177822328L915.0676077239204,792.6626941351424L915.7837811866393,792.5720555069129L916.5449377452205,792.2570466024481L916.6490180430792,791.3414303637255L916.5203280414808,790.6925194543437L916.7005200940876,790.1886560855783L917.383184314127,789.820404629194L917.5318511460373,789.3220812116779L918.3804008669304,788.7299491330778L919.1078095035464,788.86156997738L919.4111826588578,789.2057154174836L919.0477453912299,789.5008168978238L918.7830426309065,790.0155934596696L918.6187903061673,790.7650946157228L918.6803991922679,791.2771684823383L918.3794201587225,791.6710112022702L918.3886327212604,792.3390163972945L918.0663587130821,792.7412949112913L918.0133308278182,793.1482867442392L918.8522844745785,793.388929127148L919.430934087628,794.1859033249348L918.9193337577599,795.4083128339262L919.1464693054058,795.6596527101356L919.0608853563135,796.6328337051236L919.7176797582852,796.876459580817L920.0721117796074,796.8379962254257L920.4333433093543,796.5055279592198L921.0216646694516,796.5358928262285L921.1745373002541,796.9176911664836L922.0711761592829,797.3475217269151L922.3774578732555,797.2830068384937L922.745046187958,797.8264348439116L922.8217084375847,798.2825972922437L923.4210614652748,798.3826703669474L923.4452904277623,798.7970794890716L923.993587363293,798.7117393935478L924.1824909202878,798.8955731823371L924.9191210258014,798.7033683029003L925.8234797872556,799.6036849775555L925.4479275182766,800.2295808996714L925.9169675339217,800.4055599369021L926.1026148732035,800.0747501497099L926.7059517153575,800.3551165306708L927.1912670247366,800.7703975228069L927.5317209913646,801.8294363319292L927.770785946148,802.0265758930036L927.5606889567516,802.5346442385198L927.8818901792583,802.9307283044618L928.8653795657101,802.5062573232135L929.0662369143829,802.1949675141223L929.6013169930193,802.3374350767117L930.5281905753363,801.6158953367412L931.1010503247653,801.8940815578826L931.9069608414302,801.7986725136143L932.3910011617045,801.5931731119781L933.0352325698404,801.771326549002L933.0475805814986,802.2687899100565L933.5247946870222,802.7056422097667L933.8708347603024,802.7337571099342L934.52717356824,802.6210341061815L934.9949855834548,802.8181496921607L935.0419233807952,803.3894677358185L935.5267141787572,803.6558925760764L936.0202642038621,803.7230479318969L936.1553412513986,803.3622096023901L937.1517742052583,803.1201259827358L937.1790349376533,802.7579521430307L937.8439026753877,802.30034988033L938.1484150636825,802.3837327705114L938.746421408172,802.2159527821932L939.3312293990566,802.3796701945248L939.4885732758867,802.7800190443813L940.2606217787488,803.0860428810847L940.9852778462246,803.1614734361938L941.4671811794506,802.8651557894191L941.9966689651828,803.0695761120733L943.3517132366705,804.0421811721608L943.1349418053123,804.4429378365166L943.8222046852025,804.8079124721553L943.9042428149041,805.3473091321066L943.5318751435589,805.5625237259228L943.8994771401158,806.1314632835565L945.0759352225705,806.98572558249L945.5303859057185,808.3897977690795L946.0462541885972,808.5599101241532L945.777260945204,808.9550581790245L946.1898408005036,809.4777719406993L946.7732592521133,809.3445007232658L947.5719689597681,809.6770955930406L947.891346495253,809.1513374185743L947.8234266314485,808.1215991130302L948.3361683122566,808.3895611623884L948.7119334615618,808.060152978971L949.3006507865157,808.4688530892745L949.5107731822936,808.3107268798776L950.0436282567953,808.7554326753307L950.6169616111838,809.8639092617959L950.6823378812624,810.3267611423507L951.4095462367695,809.7231454518769L951.7428592222059,809.675900025657L952.2310891929428,810.109962124523L953.4545829615909,809.8479576684767L954.1629047321258,810.130280010766L954.642346418068,809.4535768253554L955.1184921893655,809.4205824015808L955.1124620698574,808.8412298645708L956.1083139484817,808.5471621468314L956.4451893561109,808.9594238734571L956.9523273978757,808.7858757283248L956.9334624284293,809.3887083039444L957.3182922756823,809.8217571214336L957.5411702618712,810.3313619902183L958.1343080278803,810.6769495341432L958.5718870103228,810.5743338988395L959.0033828626947,810.7594881741097L959.113103541813,811.178640652317L959.6846348112795,811.3437543358305L959.964217665909,811.0563453100767L960.9982671416928,811.2337309028517L961.3724891072361,810.789984825271L962.4395808807676,811.4309241402661L962.7323253808863,811.0809211907763L963.2367951313427,811.143529160152L963.4183141138565,810.8462805487361L964.2766502961513,811.4133297363005L965.0788951982813,811.684137579432L965.4108355821445,812.060854233845L966.418745074312,812.3801028297457L967.6449864290589,812.3623255453276L967.2559009845518,812.8070267793373L966.3875135555536,814.6376067207602L966.1588271464443,815.76874646543L965.9440431280527,816.2200594410097L965.5317724346551,816.5697412974114L965.1072574448353,816.6477003259788L964.7984557595028,817.2713112589845L964.2971995752669,817.3758350165881L964.249309982777,818.1220889934048L963.2896143287708,819.4519385936146L962.583904426132,819.9691666594008L962.4827375791865,820.425934089275L962.1357038979604,821.06552117088L962.2713298680046,822.6097982743377L962.2041331275595,822.9092193675315L961.736418604889,823.4301518905413L961.6992453041603,824.2688471138827L961.3987306120162,825.2111796702375L961.3869479351288,825.8732781452854L961.6190508509007,826.690465828724L961.4716532849579,827.0887317453016L961.0475257613434,827.3100024685555L960.6445820598165,829.1838579306786L960.3137096271385,829.5829373985762L960.1401287778699,830.0968677478086L959.7394937983827,830.7270676142944L959.7332259374871,831.2147881673736L959.46213062473,831.508975562756L959.3993423611373,832.2807591218298L959.4452959479331,833.3891022131284L960.018908094089,834.0168909118365L960.3015552509733,834.6863394522225L959.7563499791886,835.768976616615L959.8283723230452,836.2525053866702L959.4640649469184,836.7462863387191L959.5990348021787,837.3442309800448L959.2087376207328,838.7905480087938L959.5138594431937,839.8003516199387L959.4684128812205,840.1871656958392L959.0568378506632,840.6274333496258L959.23326310021,841.4993670214462L959.9172218027597,842.1006919029023L960.3417320650879,842.8936270075938L960.2597395875691,843.328092265263L959.141414940008,844.073967899516L959.4872652816448,844.5504619962303L959.1726983235076,844.7274465263472L959.272177970879,845.1048118299223L958.9358005446265,845.4491184728977L958.1493413360495,845.1399570447829L957.9783002680961,845.458332427952L958.4869900296053,845.665097579782L957.914780819061,846.3701172497094L957.5059372471042,846.6206809231662L956.8090591282944,846.4573773232551L956.2793901768091,846.5338559349912L955.5820630724556,846.8906431982177L955.1113937868504,846.5773836183944L954.7136243759396,846.6913575042418L954.3230201035985,846.5257107548969L954.5799744487813,845.5354333049472L954.2278291396451,845.5401560163154L953.6650651102282,845.2732301403303L952.929604658857,845.6199846907111L951.988364281684,845.3447806586482L951.5788468438877,845.5601700786647L951.7936567353481,846.1507656751637L951.6470700771042,846.5826741561759L950.9479012322208,846.9286559436587L950.9457216051342,847.5241027057637L950.6689167809145,847.5265684265032L950.5512990920524,848.0008263637574L950.1983393620758,848.2450694777799L950.1218440992288,848.6168978946371L951.8160547808511,848.4154769110755L952.0623255915416,848.1918344197038L952.6140756639979,848.3939576208213L952.7702892997986,848.9869555680198L952.0875623724842,849.244107752238L952.1039362224492,849.7265107581188L951.1120128424755,850.1136532658711L951.3738907863863,851.0447602554777L950.3053616651978,852.0328549626865L950.0225641106845,852.8291492651479L949.2786258351261,853.6043692201492L948.3267568469946,854.1364932857396L948.361602962681,854.5047939228243L947.9122374661729,854.6737736642535L947.7746468553123,854.9981669732515L947.9691627175453,855.4573313964793L947.2050233646587,855.962398852862L946.9561226442947,856.4920192038699L945.8483973847524,857.0465356743953L945.1520672225506,857.2801324194588L944.8495588918704,857.2091545466101L944.3332485427545,857.8987833597348L943.9410410989967,858.2407450720348L944.452346919581,859.0536478548165L944.4217445817085,859.8932814872824L944.180393268045,860.3243910631572L944.093347420041,861.0002341613144L944.4596770559056,861.2661941172846L944.1996047700159,861.8408270849468L943.5501730348115,862.1813611086254L942.7829902018457,863.045143147523L941.9139834894941,863.5040748658066L940.8520128098025,864.7424223785056L939.6717392025294,865.7960337621043L939.4531633322549,866.0904836301052L939.8790063879333,866.4792882481706L940.1643415832914,866.7330610699864L939.5394720555105,867.5372301474417L939.3257398520254,868.1640163208358L939.0334650813602,868.4830011740269L939.195009603849,869.0437297857861L938.8881517002737,869.5944414116093L939.4078836034478,869.7359739527019L940.5268131444809,870.6118165294611L939.8154029645884,871.8201496942638L939.5764804561095,872.4250931919378L939.9349986510733,873.1469813705189L938.7751500261638,873.623623604537L938.5816184824362,873.4736118014844L937.5599504177353,874.4141432426404L938.0481817228228,874.6995422035689L937.4977971524368,875.8273001664784L938.0420816928108,875.5386273772165L938.7118742129041,875.6861650555657L938.9307701183316,875.3527858437737L939.5406762432649,875.321213880321L940.0658130910906,875.5462990708766L940.9831054196202,874.9469082503783L940.9316348195625,874.6864529692539L941.631389394759,874.0491714316158L941.8334602515006,874.0676275965379L942.5229490641104,873.6092301824683L942.743546621994,873.1886615877593L942.5287075062151,872.9483721146098L942.0829462302427,873.1370104279194L941.6238437120846,872.4261560149025L942.1432229510447,870.9105703015957L942.8742989359544,870.4044702250394L943.1461328256701,870.42691487298L943.3883453847066,870.8638730882813L943.7836874252916,871.0410189265822L944.1847128979352,870.6080301280308L945.0987790989584,870.2379059093946L945.2020179833107,869.8613469909178L945.6434386451583,869.5617914781033L946.1931664183066,869.7514841181692L946.7726440076913,869.5647187820723L948.8061879550078,869.3477879158163L949.8676049537171,869.6327401349699L950.0346252254803,869.9774110691505L949.5690551481657,870.335060884463L949.8288213862052,870.9483944819513L950.4265524162765,871.3610488142294L951.0509852099221,871.9590283469151L950.9004169386408,872.6324466729566L950.21722779847,873.7372184277483L950.3775350028045,874.1970731025795L950.0953477031944,874.6023258790519L950.1788000451506,875.1427059219423L950.4626575075472,875.3231001126114L951.7547564418928,875.3861335989786L951.5270963181883,876.0236027983628L951.6806383469175,876.4786450738175L951.4192494232066,876.9660788640322L951.9637694387857,876.9786126683321L952.189145076245,876.6421147988876L952.5923123113062,876.9164096559107L953.1611984448082,877.893575447888L953.5628944497712,878.0486154234823L953.9844644958448,878.9280372281792L954.1695295200152,879.6482245479565L953.7731083592807,879.8443150731036L953.5285307288268,880.7426372292248L952.3832844088574,881.3674223853595L950.8338169665294,881.6912681632384L950.6422034407515,882.1489671366726L950.7889847756833,882.5794433050032L950.6459261995315,882.9586342070688L950.7913082796822,884.1096066268219L951.4048265199635,884.8403153695108L951.912342433232,885.0667892882338L952.7172177778684,885.7119623393519L953.1812579274556,885.5216384649684L953.8263291867042,885.8947129002918L953.6196371661008,886.1606541703368L953.5206360242464,886.9771230065817L953.8301516671345,887.3592747981456L953.7838080468573,888.1985639815539L953.9518836067782,888.7562856853328L954.6470411533828,888.8718670009839L954.7138069120938,889.3916081403731L955.509343169244,889.4375787070603L955.7589136365732,890.1917423150444L956.3631460444449,890.399271184273L956.9004364053981,890.8055097409815L956.6041768844025,891.2488617524359L956.6223309980505,891.7467427503143L956.2299726726578,891.9771966529806L955.9042695055377,892.4730406051822L956.0622719260027,893.219782110973L956.28356244719,893.502667722365L956.3310421759506,894.0212172003812L956.153471426107,894.3117124065029L955.4936245833451,894.7702109701495L955.0390616142558,894.7744862716645L954.6689895051077,895.0086692135665L953.7475638218802,895.2183417089254L953.5022311005396,896.0399805672205L952.5654888987356,896.3541467859759L952.7280091074481,896.8050841119402L952.0244525880753,897.0609162222681L951.4752920896663,896.6371312806732L950.7621578672715,896.4137531766755L950.3568203485775,896.9335105390928L949.9198579414315,896.7820287004579L949.4321586889837,896.9034417565854L949.3310973408024,897.2499802385137L948.6933656292185,897.6076083156368L949.225187107113,898.4031154170807L949.1942856814367,898.8273249666381L949.4588578834882,899.5241625065537L950.2546032650735,899.4459424236702L950.5266356038901,899.5425211659021L950.8885684028137,900.5099689642084L950.7137210298133,901.5797876315919L951.6006711763857,902.5028947746032L952.5543702529394,903.0541568593617L953.3313756601892,903.1381750108412L953.5901025200947,902.7218138153839L954.2237353952587,903.0650772009831L954.7833991792904,903.1886986450991L955.010865783026,903.7475931407389L954.7366890047379,904.2954315085226L955.0989647096176,904.6642204853997L955.1056410827714,905.0841773150896L955.4635725917451,905.7826441623765L955.8395030527754,905.87694785239L956.0475343685794,906.5716794418258L955.2092466873164,906.3887785248662L954.6427864508441,906.4427857722767L954.2076745075847,906.8747595686873L954.0813456157339,907.2397861279605L954.3290955388911,907.8420322137827L953.917986083803,908.5094887450978L953.9169591264636,909.0349707948917L953.1919987878791,909.5255674634827L952.8080052432142,909.9320503125637L952.8407540696899,910.5189891852642L953.1426957361491,911.0374548927066L953.6291740897668,911.3360413952614L953.721913333713,911.6692677042302L954.1286427161795,911.9150346444658L953.4694906681452,912.373939440411L953.5828448857119,913.3424263619381L953.451690813803,913.6653953210334L954.0102514188275,913.8623931812035L954.1028048648459,914.2563644846377L954.6451659139548,914.6988029213535L954.5873674988961,915.0018977043219L955.2278830930445,915.3436193227972L955.2726475435047,915.9463394601917L955.4768077622593,916.3028114109329L955.9629480192671,916.528599152618L956.442569121944,916.3025664862798L957.1416482737295,916.5963657698012L957.6256107106055,916.9564103769371L957.9155377172065,916.7693589965929L958.8463384841616,917.5808374949265L959.8471512657052,918.127900308391L960.7872497822682,917.9680726239167L961.0597882865768,918.5900118582504L961.5483612163025,918.3845720768295L961.9556735893784,918.4953394997428L962.1812807501392,918.241175414878L962.669144175974,918.2999232927687L963.3703589496072,917.8547613982228L964.0166157032781,917.8024189642165L964.4237426899508,917.6022389333084L965.1309261575261,917.6416037590825L965.35468801155,917.0275451281341L966.1079842136587,917.0501171524811L965.8876816765969,917.9472900817491L966.7213270940156,919.033212205235L966.5283164867669,919.9284769914666L965.9460782649221,920.2355416824721L966.1128575812836,920.878294369948L965.5436956229587,921.6531390130549L964.8700735436396,921.89508697993L964.5554040126972,922.167548343059L964.5474143858974,923.068719468065L963.6159542929599,923.7081886330125L963.5361677530582,923.9449371568771L963.9787921573952,925.2669128882553L964.1767086029959,925.5703334031277L963.574090304608,926.0589801025635L962.6620752974595,926.5128882517165L962.3030513364465,927.1725415389083L961.5905055785497,927.1487489732972L961.2388343136336,927.3981561163528L960.9904112380373,927.8559221764153L959.8506099901879,927.9239217205177L959.5300105658098,928.6305051817617L958.6242124918608,928.7222503643425L958.3092298435149,929.0052195284807L958.0766320070434,929.6135428828129L958.0111852137416,930.886772986516L957.4084659650725,930.6994422849093L956.7418811365224,931.3510147123307L956.5203324063714,931.2009519829444L955.6582224365211,931.313475635252L955.1609989744993,931.9713004120276L955.3946745929479,932.1811094763107L955.1269811079801,932.7640210697282L954.9199113237555,933.4804227021814L954.5168903781669,933.9185425260366L954.1945323637829,933.9352723623306L953.9141617952828,934.3340574928006L953.5362459247699,934.1830108215363L952.9120177047953,934.4405178830784L952.4899294423485,934.1031168394402L952.0340216026252,934.5418256879784L952.0379329578827,934.8728865218145L951.7517645426251,935.3899039323296L951.826587128382,935.8112815995701L951.1305877584764,936.097805768848L950.9515515550156,936.5837253209902L949.7916417198339,937.4342691757192L949.9589695011418,937.7542071605567L951.2943149390285,937.3387650039804L951.6090548868087,937.586280943593L951.0969767651841,938.2293703685282L951.134711246621,938.7984766414447L950.7997484292628,939.6111514640506L950.4482034649718,939.9194008466002L950.1696995444272,939.490652744309L949.5309000192683,939.367190839359L949.2098718539037,939.5288693658367L948.5279054571965,940.2374916511471L948.004774932444,940.1224847398698L947.0493733014828,940.3465635413304L946.5051915643562,940.6351725884742L946.39580394521,941.6810642661148L945.9201679988273,941.6173729067086L945.7046865619377,941.339844949136L944.8240881938073,941.0514109979413L944.4684738198721,941.2370099100954L943.8538927019617,941.2008948612056L943.3810826514891,941.5751558876655L943.148255137743,942.0180581590103L942.682635457064,942.0707733995514L942.049271235268,941.9003666224744L941.499599507104,942.1024776216072L940.748889599714,941.5864694825141L939.6679981942852,941.5616256227513L939.3712071188311,941.2884923673118L939.0488421493774,941.4530075698567L939.3555183783556,942.0335175832879L938.8788530206293,942.2439607428532L938.4594685810607,942.8895843795763L937.9769352645417,942.8777936030383L937.555525605525,942.2979786663054L937.6952745351064,941.6378597020375L937.1519217844307,941.1487347471266L935.7709448139794,940.9033771714312L935.3784421251294,940.1399522130378L934.6136183398849,939.9977659610449L934.225437853851,940.5063001683884L933.7489284009607,940.2896202816773L933.1019598527946,939.5303304393601L932.6288943360414,939.8464565988543L931.9423094931262,939.5539056682755L931.7787688966073,939.6917676718003L931.1002764423865,939.5450085940101L930.5342073913489,939.6853234342125L930.1125076166918,939.4893827263732L930.6041460079796,938.7868776106043L930.596897451438,938.5459275487956L930.117418923166,938.079459195098L930.3764943629885,937.6927999315812L930.2986199296811,937.113568744302L930.0061338936302,936.7076617575221L929.4761367177362,936.3617694374407L928.7026537291313,936.8997259352036L928.1607176449197,937.1223030487599L927.4366519634168,937.0741570447572L926.8960934661955,937.1936384264845L925.6160423527162,937.1396175494447L925.2549668298361,937.2203854906984L924.9729489819019,936.9717234495038L924.7618048823842,936.3464666026412L924.2054209823509,935.5377418111311L924.0371535075174,935.1010821833916L923.4575680764228,934.9617695413326L922.4495251087628,935.6057370663038L922.1702708850171,936.1804602152843L922.5730021921154,936.5504679376027L922.2992451010632,937.1773303862865L922.0419081076507,937.2590783377236L921.3400681420699,936.9301071285736L920.7625429003328,936.8334342342278L919.1824680636673,936.9501060452603L918.0124306709058,936.6734390285274L917.5235704579009,936.1881572439597L918.0248081033333,935.7889244927792L917.9220394802269,935.1415134021809L917.3635382658176,934.7596425672818L916.0604258626627,934.5986996907741L915.0513715862908,934.8417627908348L914.8326844744188,934.7461984906404L912.3362338336137,934.5963517560886L911.3080243508466,934.3569806631567L910.693985580383,933.9843170078675L910.518903885335,933.5767338981532L910.8694271229779,933.058330084561L910.2600318830719,932.5781687514682L909.2569259090324,932.549117605362L908.7734118864028,932.6569654661434L907.6299489109952,933.1870091784076L906.3239235940564,934.1041103501047L905.4701246715103,935.1010842910036L904.3380919006358,935.6612887583324L904.3522689440069,935.9787753372366L903.8151443702263,936.1928763313481L903.3904910628298,936.1610639294231L902.4087920256025,936.9906263990997L901.7064593497289,937.7939943823585L900.9425263279882,938.8221268652269L900.5208022444367,938.7766957944696L899.6816055584623,938.4273596092535L899.2796073760619,938.4740856856224L898.4195172205873,938.8043249425245L897.0793565443764,939.7346453955397L896.6708934101534,940.124099517765L895.5459486734217,941.303014332676L894.7118632961519,942.5430201618001L894.3244607107517,943.2550624823489L893.8668500176191,944.3422109831299L893.5417966755213,945.5549538058112L893.4899114183354,946.2900953098288L893.7998914121945,946.5843418089935L893.5396236739198,948.2824730728753L893.4758267471589,949.1430672261195L893.4967818862788,950.9267413997295L893.4122817523203,952.5464741863543L893.5921121258507,954.1779445591674L893.7758899902001,954.8535584323254L895.0712998119798,955.3126097333588L894.8518233161249,955.5461402699002L894.9430032659584,956.0364965257613L895.3430051783416,956.1317854775261L895.6425007179514,957.0364397262165L894.7913715541381,956.9914336579677L894.2315814482863,957.2712903184147L893.6044901919595,956.5775026309857L893.481298830995,956.2157245260169L893.0563135121429,956.3789361594827L892.6636695762463,956.2130418335291L892.3164278740951,956.3973512146913L892.0171252701166,956.0902132803312L891.5279719278315,956.5988235259574L890.7522554783664,956.352635354895L890.2559174634425,956.5269863731955L889.6039785422763,957.4120654063008L889.1347413431413,957.5581886143482L888.897858093902,957.255269967558L888.2722941532866,957.350285469467L887.5813429804366,957.7073098843975L887.2845063269906,958.0603036293905L887.6006159402295,959.0643418615509L886.7496089441265,959.0032930355082L886.035709173977,958.7192262156605L885.6436895049119,958.8464140274446L885.445473574393,959.2435413325875L884.7711210194393,959.038033979843L884.4622738000144,959.0854712672153L884.2323614728812,958.6602026153705L883.3612126932476,957.974881444592L882.3413878671709,957.630261068407L881.7800020468676,957.166087290374L881.4106495008436,957.2697332518437L880.8560301335638,956.9271461808385L880.0428335312081,957.3797441231291L879.3914143683396,957.2517510239704L878.7880676557397,957.4710336235003L878.5167362285447,958.1545648965839L877.6484341240648,958.6488281098864L876.8862037904128,958.7462191670347L876.2414728441126,958.2830912674399L875.7621803072052,957.0484269007575L875.7989765388229,956.7458218337415L874.8510294521366,956.5860203867778L874.7676604239059,956.3590418716776L873.5821140396602,955.7130389638332L872.9151410904014,955.7737488527055L872.3179707356194,955.3993244362791L872.4739683895405,954.4115885818464L872.7888280367752,954.0767284436297L873.3126575364586,953.8904643857095L872.3528759746441,953.5254697792843L872.5508232355769,953.0579468816431L871.6329026372423,952.7490282030049L870.3343963926436,952.6966191611718L869.9435703751296,952.2141369063902L869.5347231954856,952.0379632179975L868.748963121674,952.2547143278207L868.4007839113565,952.1065375132312L868.2244289840928,952.5566384772974L868.3612894536636,952.9043780200591L867.722216710843,953.1479403864796L867.4485492876647,952.644768930084L867.3564768617671,952.0017283329216L866.9464548317446,951.7136531379219L866.9831020878246,951.3505957271409L866.3751993039787,950.9553061213664L866.481334255066,950.5928508391517L865.1579640624041,950.5896632193617L864.8067348076584,950.6609713647485L864.4271967565037,950.3675247800566L863.4039855589508,950.758049460841L862.8898163017457,950.324486553829L862.8921079633401,949.8407673135225L862.5249719277836,949.3857105384377L861.9573771169544,949.120091193603L860.6458023980031,948.9955249995692L860.1282776860407,948.6060307652224L859.6015677490177,948.9136586196691L858.536552915999,948.0879221825599L857.7840410417084,947.7842417103384L857.277057192583,947.8303905842768L856.1581182652335,947.2442983770743L855.3532705160796,947.7186314858409L855.5170937626463,948.444188920359L855.1836695069378,949.0294022564485L855.5129952872085,950.3787693360064L855.4074826142587,950.9664423059294L854.4067060157049,950.7200254760683L854.1396117963268,950.8085851856304L853.1891798972065,950.6108621937747L853.0038403902508,950.8402453819435ZM876.0812793326841,956.1762660864188L876.0915628052899,956.5585295212513L876.9234903633551,956.6684930399497L876.5095933998873,956.162239200261ZM926.3694557766194,933.1450010435801L926.2135730136379,932.8821826664935L925.177589901672,932.8680827981298L924.7179494096999,932.9597497639188L924.4767106014478,933.4624209374888L924.620130312127,934.1385483733029L925.3500473535041,934.2525244338176L925.4758351112632,935.4663200894865L925.8583522057816,935.6288577722735L926.739838886102,935.5946402809786L927.6169738573681,934.7706186135765L928.1238490725773,934.4069353721279L927.9779724794516,933.6502680607227L927.7671811318942,933.568478575733L926.841678109593,934.3325495055469L926.4832726279146,933.7788603210356ZM797.1856386932413,835.7954061589116L797.4733612591226,835.3972030897421L797.172113484432,835.7634512343793ZM815.5286801281527,856.3153104240046L815.1763028087662,855.9848708045029L814.5579245904864,856.0393789458612L814.0537539922334,855.3921235117014L814.468436796722,854.5485138984805L814.8571365451753,854.6123707954393L815.3090968314009,855.0667425585707L814.987730094108,855.6177124735259L816.1343904310852,856.3796993659926L816.2159175597772,857.1803123534919Z" fill="#89cdd6" stroke="grey" stroke-width="0.6" fill-opacity="1" stroke-opacity="1" stroke-linecap="round" stroke-linejoin="round" stroke-dasharray="none"/><path d="M591.9257273483618,630.5298659275431L595.8724041106252,626.1925063550152L598.0244497979074,615.8357689461991L610.0616002563256,605.7735141849262L625.5049553712452,599.4451206363301L632.5514199964109,584.5400636167324L663.6512727292375,588.3073658975482L664.1729416586822,601.0769449827785L677.9696201704846,614.385088066454L676.8130860923775,637.7059876660205L682.3403995364697,640.5923358196887L724.6130159383247,646.4156436790363L738.7039439394157,634.4120567236532L726.3411873704226,648.2900379101193L726.9462846812639,654.4708104589663L738.8665575715968,676.1942296777852L752.6652694751028,687.6427636085864L747.5931045278066,730.6500135699025L756.9542951982057,738.8528576602548L764.374571022212,748.0347444405779L748.1463132911194,755.8617485101568L742.5694011872729,753.4008506045211L734.1221555876618,769.5288901853492L731.1376265146264,765.7615463107941L712.9848964115045,748.2142192754691L709.9188490868692,729.6547140909097L695.6651209578267,709.0892484187934L683.319247284322,708.3563546331134L658.7755090035153,726.6697472155793L647.3418065643382,721.6145954306994L642.3529724555556,725.4968759193289L627.446025543406,716.2000542353344L614.1544672373693,689.7636636519892L597.2417725944215,684.9357916086301L601.727218052476,673.8127687067608L606.2274717063756,662.9194737970247Z" fill="#89cdd6" stroke="grey" stroke-width="0.6" fill-opacity="1" stroke-opacity="1" stroke-linecap="round" stroke-linejoin="round" stroke-dasharray="none"/><path d="M261.311368031591,558.3093992864306L270.9211072202652,543.8091932415991L257.22976580965405,505.936118617974L320.7643204387132,471.56948423087306L367.98837338560224,470.9954480758315L411.4737159663073,433.36817266944854L464.28258185191225,466.9468067467824L516.0727315405129,517.1507086498459L523.891416733466,483.97995442645333L566.5654245483547,503.5587283119239L583.4198031336746,536.2977855488716L676.6834431168536,534.0576447967615L742.9518605028734,510.1812848307891L759.2536308695544,545.2785583647783L770.548211497713,558.3093992864306Z" fill="#89cdd6" stroke="grey" stroke-width="0.6" fill-opacity="1" stroke-opacity="1" stroke-linecap="round" stroke-linejoin="round" stroke-dasharray="none"/><path d="M20.125930257660002,620.0529176628479L22.23964665931453,612.3036063516047L36.082234420158784,591.0103333762672L53.735113402721254,600.339402371872L60.62324535821244,613.6727421202522L82.00806839162942,602.4132394160406L88.46654362738445,601.6568126911588L93.13696025618628,614.5210799389315L121.52674685352576,612.2633311351965L128.14236234459895,624.2273395404045L140.61403716477435,617.6919300833688L138.50177504542626,593.9208326367661L137.87543865060798,588.6360232707812L140.2099129891485,593.1243112647353L149.7743636897394,595.6155661728117L152.90536290606542,614.3390663399332L139.1797486585674,627.4501094971347L148.07791653060485,638.7629769813939L166.5006834153064,638.2669179877557L169.23917443460596,638.8664117899461L160.57625249021476,644.0460421896278L147.59545093055021,666.1474363049638L156.24489668538263,683.9573094055668L154.04078052600562,695.5687846120563L142.7414732313482,694.6822574320395L131.93792112925985,682.2472681325889L106.62728450895156,684.4396907861228L92.32734764061752,689.8680178726645L78.01549506343326,704.0881440044468L71.7269712900179,733.8219868594024L58.69282437616857,754.5408434194396L44.74515072794202,757.7248075976677L46.85914198911814,748.7229764386866L44.10575015411814,744.508567015655L44.05391522851096,734.7102440955641L29.297894101628117,692.3596765848197L23.57063359499989,652.9059025592724Z" fill="#89cdd6" stroke="grey" stroke-width="0.6" fill-opacity="1" stroke-opacity="1" stroke-linecap="round" stroke-linejoin="round" stroke-dasharray="none"/><path d="M171.28926345100263,592.5593250807724L185.22465976458625,586.1744787983771L198.2145777150581,599.4336279441341L206.88278742028524,599.7029680587293L210.12834946344265,594.9981671925489L220.98205185209554,594.5171815800859L218.54400281732524,589.3304540652753L232.3249431709628,583.3860747982981L236.18125212187988,587.6428217973007L237.11101874629094,599.6047513762023L246.0892987701518,597.9579956692614L261.4680003290978,591.5157047083048L267.55124993950267,587.0229828136653L277.434287820628,580.531642867063L282.60436734594805,583.3286955435469L294.02882212704026,606.4791448461037L286.8769125162835,620.830966713489L288.97255237792524,629.6054936991713L297.06254997456745,640.8910667843156L302.89217425615425,648.2132796665828L317.8962659833087,647.1780389622727L328.2604217514181,641.1845419134625L334.2788727147981,641.7469531028473L339.86434399145764,661.6027526807447L332.321079201678,671.5097985335597L329.3863040917131,671.0779041438363L324.1183241600138,677.7892579448089L324.56698059389964,683.6606755430839L330.274636879014,690.0047051027796L329.4761778138072,693.8860590485419L334.39267780789123,711.0671210335713L337.5078459513061,716.1150011156569L336.34953571403275,719.0016637342487L330.2015579731669,720.0127610731579L326.67089727308485,724.6527039563225L333.5118469115587,738.4577422142029L329.4678454246823,753.331289028647L326.99663354872064,751.5124632881052L323.106996456032,753.7716995298106L317.7742147322988,749.7110271508573L286.1432792353189,742.2085720367759L291.4761786110139,752.1489141138009L271.4980954771836,743.2929294906353L274.66231112941387,749.3435858169105L253.8359296801591,742.5673904976866L243.86324869370037,745.3810066478909L231.4035092665108,747.3784736362286L216.55401972176514,741.8253750276053L222.49007295981755,727.082275849214L228.5658425526235,721.5052644630487L230.37561043341339,715.4542713434348L233.80900943733832,715.4543251550203L237.37190454020674,710.5284824864357L237.3396348405313,701.0451086649118L233.2872175738339,692.4425890984421L219.5876702132482,680.2439194884064L225.4998116110055,669.512347437485L234.60008513498906,669.4800226968073L236.28771744502956,668.1587991009728L227.48063794948212,667.3677320335846L228.98127350840878,656.0987789473438L226.7469989992478,646.7866315955616L216.57888997922964,631.3172250095959L211.34323759870313,628.5610527879471L205.5208749090616,624.7047635630297L212.7541968062069,623.5297966474609L196.5759991804116,614.4951261290116L196.4779696344085,610.6054577360337L188.4054947823206,610.1409626042878L174.28225844796543,616.7867178844026L171.70472077594604,605.590827697044L174.42012733566116,597.4444452686439Z" fill="#89cdd6" stroke="grey" stroke-width="0.6" fill-opacity="1" stroke-opacity="1" stroke-linecap="round" stroke-linejoin="round" stroke-dasharray="none"/><path d="M350.1594457621777,680.6917206917424L361.3613209502837,663.0853015997855L392.2173839711122,658.177407633164L416.1719238086571,623.6320182050258L418.99991550695813,602.3666234042321L458.9533132141787,592.6085936271993L491.33519505729237,616.4247903174837L517.5074438267784,601.7031853473745L532.0908586167825,616.8683171270386L537.5517629890219,648.0864391126961L564.9162070199654,664.5257085796329L562.0598258842056,674.6199290085788L534.0600938905482,690.4777312652732L476.64168504032205,750.1421524989419L456.5972328597236,755.7981974251161L439.5728222004873,745.898259690759L411.51628287376843,730.5415036647173L390.97174033375086,693.5005566374166Z" fill="#89cdd6" stroke="grey" stroke-width="0.6" fill-opacity="1" stroke-opacity="1" stroke-linecap="round" stroke-linejoin="round" stroke-dasharray="none"/><path d="M775.2241363586909,731.3233283397567L797.7998854439193,729.2533003108838L822.5023116748325,678.5426706107246L841.039543135028,665.5811699544574L837.254116133021,656.1001043985889L850.2440355161107,646.0445553448226L853.5897599698383,635.4328576217522L836.681245156653,600.2801800225134L847.1613854936531,602.055695339237L873.7573500446179,610.6274212106655L880.0974092864399,626.4216303881694L895.0257454739294,631.7924717495916L898.5180372604045,615.6035388226592L910.568657633381,596.4933156407351L906.2836588906484,569.3393758740422L922.9573265094259,570.5419774711336L932.1601378427713,576.4288731186098L930.824539559464,598.8562991921353L937.063035096231,613.9747057709174L931.9986471333887,624.0434911098127L934.2452367237092,629.2244613672519L944.577157778609,624.8511746863223L942.6836848089715,640.9951488832448L959.4755533737825,681.6968243542942L956.9508458369764,684.3831686315098L924.6010823596389,697.2264555487782L903.3625778748665,717.0861144105002L907.1929728727155,739.0004504582903L918.0262252022767,742.8607156812504L911.3913743050434,756.3937492210534L895.7302515848332,750.286911281466L887.5249520876732,735.5366593271756L873.507569646401,726.1720544436976L845.2229589702147,725.6877811968589L826.0395402175727,736.0945494554908L811.9921596687673,744.3281786650041Z" fill="#89cdd6" stroke="grey" stroke-width="0.6" fill-opacity="1" stroke-opacity="1" stroke-linecap="round" stroke-linejoin="round" stroke-dasharray="none"/><path d="M1,858.064491948724L10.261104772427643,840.5545309575973L26.641600380968157,856.6121646496031L51.16877986388681,870.892685161336L73.03841293710138,853.1916272353556L73.7282364566181,847.4827513033961L71.14529810077693,781.7405380354903L76.16464862720022,783.4723548050388L110.04128943424075,771.6415851166676L122.15019745320933,817.1729366541404L113.88668903927828,849.3759694310575L119.14130052412656,851.3278472364473L117.43884908143082,862.3810090915213L116.749546394547,883.7807967131812L110.9807708580538,892.8956639796816L105.40320788810277,902.5977812919446L116.7344910015454,914.9717111478094L114.84083916225609,925.083823840454L92.80983779815506,939.8206708915095L71.98127699542965,942.6966187584185L69.48650740907942,932.2182441703626L57.78701228248792,920.6506577655673L38.735185439485576,928.6508726315806L30.22377868186595,921.7382394884917L26.34813503881196,917.5394989144406L31.00134184822855,901.0424228458869L11.861538575545637,890.0328569332341Z" fill="#89cdd6" stroke="grey" stroke-width="0.6" fill-opacity="1" stroke-opacity="1" stroke-linecap="round" stroke-linejoin="round" stroke-dasharray="none"/><path d="M165.79909466104982,821.5354725413636L167.44787937683031,820.2475006923632L182.4342630901083,814.5722733281873L204.43567854028151,830.7002472703898L234.3456930772736,860.1386613349314L254.20976324815092,838.4649734488048L270.127075719789,833.0487143862556L288.3924428981227,846.1940230524488L297.78696399422734,832.1029171851696L300.08515269760755,826.9014698922547L309.38162896780705,832.3971125101816L320.456262540818,830.7671659089974L310.21430069568487,852.1966102319711L324.549467209632,862.8126781832834L336.27545233914316,859.4854379792669L341.3475125984951,861.9816854793607L345.63669224672594,889.5582048198994L340.6294884375984,892.1690340134519L313.28040090277136,894.5987293074868L294.998454647126,898.3661739236704L283.90697527238444,913.7930735572445L275.9650699646645,906.0472210800217L264.45181175353355,924.4107511237817L257.9939490916895,924.3625671206682L250.29623706982966,915.0828424311185L244.22863853787385,916.2392220231559L234.58987248011908,908.5915194416157L225.81529844069883,885.5963717798732L216.4392271026354,879.3494137653906L194.421228721827,873.8704408652557L180.0694793732364,863.7266623416654L168.60432053525437,864.6886098862597L166.6150678482445,864.6553807336895L167.05552906421326,854.0546249532345L171.67044617759166,843.5366820875352Z" fill="#89cdd6" stroke="grey" stroke-width="0.6" fill-opacity="1" stroke-opacity="1" stroke-linecap="round" stroke-linejoin="round" stroke-dasharray="none"/><path d="M378.98186718220677,878.9445051547664L393.42343426945445,868.8628119804343L399.0923793315833,851.8386844524066L406.8963047514517,833.4687537509599L409.7316522438359,827.942101239867L397.9258573109473,806.5761343616614L400.8873968217067,801.2492439820635L420.2976572937332,796.4762638735992L425.35563066368377,800.5491627217707L441.6635838525999,780.7074505238124L467.28185255186145,762.5535567125917L473.82987475874506,771.8451890696015L443.3855437404036,800.1727192039398L452.30090448363626,810.6126147713949L477.16610582057365,821.2517136689567L488.57474771061607,806.559994260344L500.9726419537801,805.0517834065104L498.96150443185616,830.6168586036365L515.4304051658692,850.0614888257987L524.9218219613467,866.746020353894L556.4062752851114,871.5007074748864L547.6678628997688,898.4809682747727L540.906080067005,924.691523113841L541.0303219957732,931.3653564702981L534.5899996847711,933.0694026960409L497.76074960751066,918.6641443550907L495.6805550258905,937.877118607139L489.23826258565896,939.6517027794907L488.48509480304165,939.706880352067L475.1204509198251,942.1471202722896L476.9502562155867,961.8628528308473L452.2296224466154,949.3752268146636L448.7145139751792,940.9262745299784L446.0398172930072,928.6199574373459L437.4664854576149,898.7862281687121L444.0309826167995,881.5642408540298L437.3751586249982,883.6443572694552L425.1581652336099,877.8515354534466L400.2950603806512,888.7576914898527L387.1806740554257,886.1746179336624Z" fill="#89cdd6" stroke="grey" stroke-width="0.6" fill-opacity="1" stroke-opacity="1" stroke-linecap="round" stroke-linejoin="round" stroke-dasharray="none"/><path d="M784.9918676302314,924.2370904543932L749.3494814983223,915.5439389269595L731.6095931483378,908.0453339311935L722.7031277037604,893.4558117446577L722.7073642124597,883.6448637209687L728.087887867714,852.7192777848686L726.5325705680498,836.3196950348356L719.6414159885207,823.9408946672193L705.8812926902629,811.510114605233L688.0070428313029,801.2558957443543L667.961427428505,794.9888263273315L647.701425304298,794.3708576525096L626.7278893263174,797.075600962271L607.554929900909,802.0422137196583L592.9473129853031,813.2809402781568L585.6582285925215,835.0480172035896L588.2452869710814,853.8806281016441L597.8847388643735,870.7899589985464L602.0160302324912,899.9136039797304L606.7677479642825,903.6110687624168L631.9742990382256,911.1648998910387L645.4323973468745,918.6524371103296L662.3296977007867,921.5042793978064L689.9375444264188,916.6126589631749L699.210065478339,916.5531659571134L706.9837971885227,907.5666545760032L712.92085178036,911.7180452513567L714.9196004330079,928.4998484008393L723.760508275549,951.0538054951758L736.0227114674854,972.5426744534197L742.4453461499525,976.6807877419196L773.3853199878704,989.0839943860628L790.1531261656619,980.286866605893L796.1993533838904,959.7535778199672L793.7516750919331,937.742920977631Z" fill="#89cdd6" stroke="grey" stroke-width="0.6" fill-opacity="1" stroke-opacity="1" stroke-linecap="round" stroke-linejoin="round" stroke-dasharray="none"/></g><g><circle fill="grey" stroke="white" stroke-width="0.5" fill-opacity="0.7" stroke-dasharray="none" stroke-opacity="1" cx="573.4179453489323" cy="165.8958435838431" r="100"/><circle fill="grey" stroke="white" stroke-width="0.5" fill-opacity="0.7" stroke-dasharray="none" stroke-opacity="1" cx="264.44353071785554" cy="692.942672729856" r="28.856035455441543"/><circle fill="grey" stroke="white" stroke-width="0.5" fill-opacity="0.7" stroke-dasharray="none" stroke-opacity="1" cx="488.95785796947894" cy="336.0668625964463" r="22.779841151823824"/><circle fill="grey" stroke="white" stroke-width="0.5" fill-opacity="0.7" stroke-dasharray="none" stroke-opacity="1" cx="417.363747749132" cy="216.6034429249994" r="20.49582973766167"/><circle fill="grey" stroke="white" stroke-width="0.5" fill-opacity="0.7" stroke-dasharray="none" stroke-opacity="1" cx="442.03467614672445" cy="152.97775029789773" r="19.252479671503657"/><circle fill="grey" stroke="white" stroke-width="0.5" fill-opacity="0.7" stroke-dasharray="none" stroke-opacity="1" cx="496.1047721805153" cy="287.0299920350226" r="12.605106821220474"/><circle fill="grey" stroke="white" stroke-width="0.5" fill-opacity="0.7" stroke-dasharray="none" stroke-opacity="1" cx="498.1649612103083" cy="289.0203580986563" r="12.444312007057452"/><circle fill="grey" stroke="white" stroke-width="0.5" fill-opacity="0.7" stroke-dasharray="none" stroke-opacity="1" cx="182.15584602409035" cy="409.1803962154372" r="12.427422190155085"/><circle fill="grey" stroke="white" stroke-width="0.5" fill-opacity="0.7" stroke-dasharray="none" stroke-opacity="1" cx="568.2129297995707" cy="167.54198398577864" r="5.5577121604552175"/><circle fill="grey" stroke="white" stroke-width="0.5" fill-opacity="0.7" stroke-dasharray="none" stroke-opacity="1" cx="594.4517065917589" cy="321.55564889113884" r="0"/><circle fill="grey" stroke="white" stroke-width="0.5" fill-opacity="0.7" stroke-dasharray="none" stroke-opacity="1" cx="573.0434395413231" cy="211.08928252632904" r="0"/><circle fill="grey" stroke="white" stroke-width="0.5" fill-opacity="0.7" stroke-dasharray="none" stroke-opacity="1" cx="517.1448812506951" cy="274.9715548084059" r="0"/><circle fill="grey" stroke="white" stroke-width="0.5" fill-opacity="0.7" stroke-dasharray="none" stroke-opacity="1" cx="903.333890102489" cy="280.7208087886538" r="0"/><circle fill="grey" stroke="white" stroke-width="0.5" fill-opacity="0.7" stroke-dasharray="none" stroke-opacity="1" cx="239.149570836953" cy="360.77063813801215" r="0"/><circle fill="grey" stroke="white" stroke-width="0.5" fill-opacity="0.7" stroke-dasharray="none" stroke-opacity="1" cx="646.0029363615376" cy="143.2420257054182" r="0"/><circle fill="grey" stroke="white" stroke-width="0.5" fill-opacity="0.7" stroke-dasharray="none" stroke-opacity="1" cx="248.40581303836552" cy="696.4166507798363" r="0"/><circle fill="grey" stroke="white" stroke-width="0.5" fill-opacity="0.7" stroke-dasharray="none" stroke-opacity="1" cx="528.2499110347198" cy="636.6779957298568" r="0"/><circle fill="grey" stroke="white" stroke-width="0.5" fill-opacity="0.7" stroke-dasharray="none" stroke-opacity="1" cx="524.6142639548689" cy="842.114408871872" r="0"/></g><g><text x="63.7338732457556" y="57.613679660862545" fill="#474342" opacity="1" font-size="24" font-family="Roboto" font-style="normal" text-decoration="none" font-weight="bold" text-anchor="middle" dominant-baseline="middle" paint-order="stroke" stroke="white" stroke-width="4" stroke-opacity="0.5" stroke-linejoin="round" stroke-linecap="round">1</text><text x="110.92404686882583" y="716.5283261755685" fill="#474342" opacity="1" font-size="24" font-family="Roboto" font-style="normal" text-decoration="none" font-weight="bold" text-anchor="middle" dominant-baseline="middle" paint-order="stroke" stroke="white" stroke-width="4" stroke-opacity="0.5" stroke-linejoin="round" stroke-linecap="round">2</text><text x="310.17144661067505" y="597.6790000137553" fill="#474342" opacity="1" font-size="24" font-family="Roboto" font-style="normal" text-decoration="none" font-weight="bold" text-anchor="middle" dominant-baseline="middle" paint-order="stroke" stroke="white" stroke-width="4" stroke-opacity="0.5" stroke-linejoin="round" stroke-linecap="round">3</text><text x="484.9498674368606" y="583.696726347669" fill="#474342" opacity="1" font-size="24" font-family="Roboto" font-style="normal" text-decoration="none" font-weight="bold" text-anchor="middle" dominant-baseline="middle" paint-order="stroke" stroke="white" stroke-width="4" stroke-opacity="0.5" stroke-linejoin="round" stroke-linecap="round">4</text><text x="699.9273250530659" y="609.9134894715826" fill="#474342" opacity="1" font-size="24" font-family="Roboto" font-style="normal" text-decoration="none" font-weight="bold" text-anchor="middle" dominant-baseline="middle" paint-order="stroke" stroke="white" stroke-width="4" stroke-opacity="0.5" stroke-linejoin="round" stroke-linecap="round">5</text><text x="818.7766512148719" y="636.1302525955107" fill="#474342" opacity="1" font-size="24" font-family="Roboto" font-style="normal" text-decoration="none" font-weight="bold" text-anchor="middle" dominant-baseline="middle" paint-order="stroke" stroke="white" stroke-width="4" stroke-opacity="0.5" stroke-linejoin="round" stroke-linecap="round">6</text><text x="42.760462746613484" y="824.8909470877843" fill="#474342" opacity="1" font-size="24" font-family="Roboto" font-style="normal" text-decoration="none" font-weight="bold" text-anchor="middle" dominant-baseline="middle" paint-order="stroke" stroke="white" stroke-width="4" stroke-opacity="0.5" stroke-linejoin="round" stroke-linecap="round">7</text><text x="242.00786248846453" y="821.3953786712664" fill="#474342" opacity="1" font-size="24" font-family="Roboto" font-style="normal" text-decoration="none" font-weight="bold" text-anchor="middle" dominant-baseline="middle" paint-order="stroke" stroke="white" stroke-width="4" stroke-opacity="0.5" stroke-linejoin="round" stroke-linecap="round">8</text><text x="521.6533358103607" y="823.1431628795399" fill="#474342" opacity="1" font-size="24" font-family="Roboto" font-style="normal" text-decoration="none" font-weight="bold" text-anchor="middle" dominant-baseline="middle" paint-order="stroke" stroke="white" stroke-width="4" stroke-opacity="0.5" stroke-linejoin="round" stroke-linecap="round">9</text><text x="659.7282882630443" y="938.4969206248061" fill="#474342" opacity="1" font-size="24" font-family="Roboto" font-style="normal" text-decoration="none" font-weight="bold" text-anchor="middle" dominant-baseline="middle" paint-order="stroke" stroke="white" stroke-width="4" stroke-opacity="0.5" stroke-linejoin="round" stroke-linecap="round">10</text><text x="886.9064329385619" y="830.4091819137684" fill="#474342" opacity="1" font-size="24" font-family="Roboto" font-style="normal" text-decoration="none" font-weight="bold" text-anchor="middle" dominant-baseline="middle" paint-order="stroke" stroke="white" stroke-width="4" stroke-opacity="0.5" stroke-linejoin="round" stroke-linecap="round">1</text><text x="961.4334892930383" y="928.536472780499" fill="#474342" opacity="1" font-size="24" font-family="Roboto" font-style="normal" text-decoration="none" font-weight="bold" text-anchor="middle" dominant-baseline="middle" paint-order="stroke" stroke="white" stroke-width="4" stroke-opacity="0.5" stroke-linejoin="round" stroke-linecap="round">2</text><text x="930.3805491453386" y="938.4734136277548" fill="#474342" opacity="1" font-size="24" font-family="Roboto" font-style="normal" text-decoration="none" font-weight="bold" text-anchor="middle" dominant-baseline="middle" paint-order="stroke" stroke="white" stroke-width="4" stroke-opacity="0.5" stroke-linejoin="round" stroke-linecap="round">3</text><text x="874.4852568794795" y="860.2200044555648" fill="#474342" opacity="1" font-size="24" font-family="Roboto" font-style="normal" text-decoration="none" font-weight="bold" text-anchor="middle" dominant-baseline="middle" paint-order="stroke" stroke="white" stroke-width="4" stroke-opacity="0.5" stroke-linejoin="round" stroke-linecap="round">4</text><text x="912.9909026626265" y="882.5781213619193" fill="#474342" opacity="1" font-size="24" font-family="Roboto" font-style="normal" text-decoration="none" font-weight="bold" text-anchor="middle" dominant-baseline="middle" paint-order="stroke" stroke="white" stroke-width="4" stroke-opacity="0.5" stroke-linejoin="round" stroke-linecap="round">5</text><text x="829.7690230667959" y="861.4621220614645" fill="#474342" opacity="1" font-size="24" font-family="Roboto" font-style="normal" text-decoration="none" font-weight="bold" text-anchor="middle" dominant-baseline="middle" paint-order="stroke" stroke="white" stroke-width="4" stroke-opacity="0.5" stroke-linejoin="round" stroke-linecap="round">6</text><text x="837.176078799248" y="889.233272990401" fill="#474342" opacity="1" font-size="24" font-family="Roboto" font-style="normal" text-decoration="none" font-weight="bold" text-anchor="middle" dominant-baseline="middle" paint-order="stroke" stroke="white" stroke-width="4" stroke-opacity="0.5" stroke-linejoin="round" stroke-linecap="round">7</text><text x="894.1912757973714" y="779.1349615457584" fill="#474342" opacity="1" font-size="24" font-family="Roboto" font-style="normal" text-decoration="none" font-weight="bold" text-anchor="middle" dominant-baseline="middle" paint-order="stroke" stroke="white" stroke-width="4" stroke-opacity="0.5" stroke-linejoin="round" stroke-linecap="round">8</text><text x="921.4074381492719" y="867.298403447363" fill="#474342" opacity="1" font-size="24" font-family="Roboto" font-style="normal" text-decoration="none" font-weight="bold" text-anchor="middle" dominant-baseline="middle" paint-order="stroke" stroke="white" stroke-width="4" stroke-opacity="0.5" stroke-linejoin="round" stroke-linecap="round">9</text><text x="936.6153709816463" y="973.7539332739834" fill="#474342" opacity="1" font-size="24" font-family="Roboto" font-style="normal" text-decoration="none" font-weight="bold" text-anchor="middle" dominant-baseline="middle" paint-order="stroke" stroke="white" stroke-width="4" stroke-opacity="0.5" stroke-linejoin="round" stroke-linecap="round">10</text></g><g id="info" class="info" transform="translate(29.09105110168457,21.989669799804688)" style="pointer-events: none; font: 8px sans-serif; display: none;"><path fill="#fcf7e6" stroke="#4a4d4b" stroke-width="1" fill-opacity="1" stroke-opacity="1" d="M0,0v45.47430229187012h93.12491607666016v-40.47430229187012h-88.12491607666016z"/><text transform="translate(10,13.16392171382904)"><tspan x="0" y="18px" style="font-weight: bold; font-size: 18px; font-style: normal; fill: rgb(77, 69, 69);">Yvelines</tspan></text></g></svg>